<svg width="428" height="259" viewBox="0 0 428 259" fill="none" xmlns="http://www.w3.org/2000/svg">
<path d="M69.4907 19.1442C82.1428 20.7126 94.9705 20.0952 107.413 17.3189C110.134 16.6983 108.984 12.5549 106.263 13.1573C94.2195 15.9688 81.8445 17.0991 69.4907 16.5158C67.7744 16.4063 67.8474 19.0165 69.4907 19.1442Z" fill="black"/>
<path d="M132.044 15.5665C142.323 15.3657 152.749 15.457 162.937 14.8546C165.73 14.6903 165.785 10.3826 162.937 10.4739C152.639 10.8207 142.323 11.9159 132.044 12.646C130.181 12.7738 130.145 15.603 132.044 15.5665Z" fill="black"/>
<path d="M200.312 13.8144C211.307 14.6447 222.34 14.864 233.36 14.4715C233.923 14.4208 234.446 14.1613 234.828 13.7442C235.209 13.327 235.421 12.7824 235.421 12.2172C235.421 11.6521 235.209 11.1074 234.828 10.6903C234.446 10.2731 233.923 10.0137 233.36 9.96299C222.332 9.70114 211.299 10.0607 200.312 11.0399C200.13 11.0399 199.949 11.0758 199.781 11.1455C199.613 11.2152 199.46 11.3174 199.331 11.4462C199.202 11.575 199.1 11.728 199.03 11.8963C198.96 12.0646 198.924 12.245 198.924 12.4271C198.924 12.6093 198.96 12.7897 199.03 12.958C199.1 13.1263 199.202 13.2792 199.331 13.4081C199.46 13.5369 199.613 13.6391 199.781 13.7088C199.949 13.7785 200.13 13.8144 200.312 13.8144V13.8144Z" fill="black"/>
<path d="M207.524 30.7529C210.701 30.3696 210.719 25.277 207.524 25.7334C190.763 27.869 174.075 29.2197 157.24 30.5521C156.916 30.5521 156.605 30.681 156.375 30.9103C156.146 31.1397 156.017 31.4507 156.017 31.7751C156.017 32.0994 156.146 32.4105 156.375 32.6398C156.605 32.8692 156.916 32.998 157.24 32.998C174.035 33.6198 190.852 32.869 207.524 30.7529V30.7529Z" fill="black"/>
<path d="M87.4751 51.8716C97.7363 50.8494 108.052 50.4844 118.295 49.3344C121.217 49.0059 121.308 44.3879 118.295 44.6617C107.998 45.5561 97.7729 47.2353 87.4751 48.3123C85.1929 48.4218 85.1929 52.0541 87.4751 51.8716Z" fill="black"/>
<path d="M120.523 77.4257C118.186 77.6082 118.168 81.2588 120.523 81.0763C136.079 79.8898 151.653 79.0502 167.228 78.0828C170.332 77.882 170.313 72.972 167.228 73.2458C151.653 74.633 136.116 76.1662 120.523 77.4257Z" fill="black"/>
<path d="M222.77 66.3097C243.403 69.3587 264.247 70.7625 285.104 70.5079C288.481 70.5079 288.463 65.1598 285.104 65.2876C264.459 66.0804 243.785 65.1339 223.299 62.4584C221.126 62.1846 220.597 65.9812 222.77 66.3097Z" fill="black"/>
<path d="M53.6971 78.521C41.7013 79.0321 29.7421 80.1273 17.7646 80.8574C15.1719 81.0217 15.1537 85.0555 17.7646 84.9095C29.7238 84.2159 41.7378 83.8691 53.6971 82.9382C56.4906 82.7192 56.5636 78.4115 53.6971 78.521Z" fill="black"/>
<path d="M127.023 101.611C107.797 103.874 88.6804 107.087 69.5091 109.752C67.0442 110.08 67.0077 114.005 69.5091 113.658C88.863 111.066 108.345 109.186 127.644 106.357C130.273 105.882 129.689 101.301 127.023 101.611Z" fill="black"/>
<path d="M262.116 92.813C242.726 94.2732 223.317 95.6057 203.927 96.9929C201.152 97.1754 201.097 101.501 203.927 101.337C223.317 100.242 242.726 99.0737 262.116 98.0516C265.494 97.869 265.476 92.5574 262.116 92.813Z" fill="black"/>
<path d="M157.204 133.554C148.842 133.024 140.406 133.024 132.026 132.769C129.36 132.769 129.396 136.748 132.026 136.894C140.406 137.35 148.823 138.08 157.204 138.281C160.271 138.336 160.217 133.736 157.204 133.554Z" fill="black"/>
<path d="M259.944 143.136C249.171 143.483 238.326 144.962 227.59 145.984C224.687 146.257 224.65 150.821 227.59 150.565C238.545 149.616 249.664 149.16 260.455 147.572C263.066 147.152 262.445 143.008 259.944 143.136Z" fill="black"/>
<path d="M375.665 122.365C361.679 121.397 347.2 123.369 333.397 125.504C331.005 125.869 331.571 130.067 333.981 129.757C347.894 127.932 361.698 127.932 375.665 127.056C376.252 127.004 376.798 126.734 377.195 126.3C377.593 125.866 377.813 125.299 377.813 124.71C377.813 124.122 377.593 123.554 377.195 123.12C376.798 122.686 376.252 122.416 375.665 122.365V122.365Z" fill="black"/>
<path d="M330.384 81.2773C341.887 82.3177 353.372 83.5772 364.874 84.6359C367.741 84.9097 367.759 80.3647 364.874 80.1456C353.372 79.306 341.869 78.6489 330.384 77.7728C328.029 77.5902 328.139 81.0765 330.384 81.2773Z" fill="black"/>
<path d="M319.247 31.3921C310.501 29.1066 301.382 28.6222 292.443 29.9683C289.705 30.3699 290.873 34.4951 293.594 34.13C301.26 33.0836 309.058 33.5863 316.526 35.6085L316.636 36.2473C317.074 38.8027 321.529 38.2552 321.219 35.6267L321 33.6189C320.967 33.1141 320.782 32.6309 320.469 32.2333C320.156 31.8358 319.73 31.5424 319.247 31.3921V31.3921Z" fill="black"/>
<path d="M198.157 165.259C177.904 165.886 157.744 168.274 137.905 172.396C135.422 172.907 136.481 176.667 138.945 176.193C158.443 172.476 178.236 170.527 198.084 170.37C201.444 170.352 201.444 165.15 198.157 165.259Z" fill="black"/>
<path d="M88.0411 160.02C80.6988 157.539 72.8882 156.758 65.1999 157.739C62.4064 158.085 62.3881 162.503 65.1999 162.156C72.4965 161.257 79.9013 161.942 86.9091 164.164C89.5565 164.93 90.6703 160.896 88.0411 160.02Z" fill="black"/>
<path d="M190.927 198.863C171.975 200.688 153.096 203.663 134.18 205.89C131.569 206.2 131.551 210.325 134.18 210.015C153.297 207.77 172.523 206.219 191.566 203.627C194.268 203.262 193.648 198.589 190.927 198.863Z" fill="black"/>
<path d="M263.541 185.629C279.115 185.155 294.689 184.899 310.246 184.242C313.422 184.096 313.441 179.168 310.246 179.277C294.671 179.807 279.206 180.756 263.541 181.468C260.893 181.595 260.857 185.702 263.541 185.629Z" fill="black"/>
<path d="M313.148 211.384C296.844 212.315 280.576 213.21 264.271 214.086C261.587 214.213 261.569 218.412 264.271 218.284C280.557 217.59 296.844 217.043 313.148 216.459C316.398 216.349 316.398 211.202 313.148 211.384Z" fill="black"/>
<path d="M408.713 204.776C401.519 205.525 394.344 206.474 387.15 207.332C384.466 207.66 384.356 211.859 387.15 211.64C394.344 211.074 401.537 210.581 408.713 209.814C412.018 209.577 412.018 204.43 408.713 204.776Z" fill="black"/>
<path d="M269.237 235.131C252.024 232.577 234.466 233.653 217.694 238.289C217.172 238.469 216.738 238.842 216.481 239.33C216.224 239.818 216.162 240.386 216.309 240.918C216.455 241.45 216.799 241.907 217.269 242.195C217.74 242.483 218.303 242.581 218.844 242.469C234.862 238.31 251.555 237.428 267.922 239.877C271.008 240.315 272.396 235.606 269.237 235.131Z" fill="black"/>
<path d="M355.526 240.023C345.351 240.312 335.251 241.856 325.455 244.623C324.866 244.785 324.367 245.174 324.065 245.705C323.764 246.235 323.686 246.864 323.848 247.452C324.01 248.04 324.4 248.54 324.93 248.841C325.461 249.142 326.09 249.22 326.678 249.058C336.168 246.935 345.817 245.598 355.526 245.061C358.74 244.823 358.813 239.986 355.526 240.023Z" fill="black"/>
</svg>
