<svg classname="logoPart" width="113" height="113" viewBox="0 0 113 113" fill="none" xmlns="http://www.w3.org/2000/svg">
<g classname="logoPart" classname="logoPart" clip-path="url(#clip0)">
<path classname="arrow" d="M106.557 51.2792C95.193 73.2394 74.3866 96.3663 43.9142 108.441C44.7879 108.699 45.6777 108.915 46.5674 109.131C48.635 109.615 92.2124 114.039 104.774 69.3554C106.132 62.5965 107.448 57.6966 106.557 51.2792Z" fill="#ECECEC" fill-opacity="0.62"/>
<path classname="arrow" d="M58.3982 16.5001L57.8907 11.3178C57.5105 11.355 57.1284 11.3723 56.7482 11.4095C31.2367 13.9079 12.5915 36.6014 15.0899 62.1129C16.1284 72.7177 20.6643 82.1114 27.4113 89.329C22.8452 82.9281 19.8361 75.304 19.015 66.9202C16.6131 42.187 34.0847 20.0933 58.3982 16.5001Z" fill="white" fill-opacity="0.2"/>
<path classname="logoPart"  d="M18.4999 92C-14.4842 53.168 24.8516 -1.95142 69.8448 5.56399C69.8448 5.56399 64.4328 15.0743 71.039 21.5845C77.6451 28.0947 87.036 21.8189 87.036 21.8189C87.036 21.8189 86.6234 27.1316 89.1207 30.5609C91.618 33.9902 96.9307 34.4028 96.9307 34.4028C96.9307 34.4028 92.5513 40.0465 95.5448 46.0023C98.5383 51.9581 106.495 51.5794 106.495 51.5794C109.553 101.04 51.484 130.832 18.4999 92Z" stroke="white" stroke-width="3"/>
<path classname="logoPart" d="M40.0995 85.0244L38.5897 87.4475L46.0807 92.1152L47.5905 89.6921L40.0995 85.0244Z" fill="white"/>
<path classname="logoPart" d="M55.7209 45C49.5814 45 44 50.061 44 56.7805C44 63.5 48.9419 68 55.7209 68C62.5 68 67.5 65 67.5 56.7805C67.5 48.561 61.8605 45 55.7209 45Z" stroke="white" stroke-width="2"/>
<path classname="logoPart" d="M51.9964 25.6711L53.4475 28.1296L61.0482 23.6434L59.5971 21.1848L51.9964 25.6711Z" fill="white"/>
<path classname="logoPart" d="M24.4968 65.1633L21.152 73.3309L23.794 74.4128L27.1388 66.2452L24.4968 65.1633Z" fill="#F2F2F2" fill-opacity="0.74"/>
<path classname="logoPart" d="M89.7828 51.478L90.4068 54.2639L99.0196 52.3348L98.3956 49.5488L89.7828 51.478Z" fill="white"/>
<path classname="logoPart" d="M24.8329 36.7494L25.1605 39.5854L33.9281 38.5728L33.6006 35.7368L24.8329 36.7494Z" fill="white" fill-opacity="0.36"/>
<path classname="logoPart" d="M86.7954 72.2939L86.2601 75.0983L94.93 76.7533L95.4653 73.9489L86.7954 72.2939Z" fill="#F2F2F2" fill-opacity="0.74"/>
<path classname="logoPart" d="M68.3001 87.0131L64.9553 95.1807L67.5972 96.2626L70.942 88.095L68.3001 87.0131Z" fill="white" fill-opacity="0.36"/>
<path classname="logoPart" d="M80.977 32.1309L77.6322 40.2985L80.2741 41.3804L83.6189 33.2128L80.977 32.1309Z" fill="#F2F2F2" fill-opacity="0.74"/>
</g>
<defs>
<clipPath id="clip0">
<rect width="113" height="113" fill="white"/>
</clipPath>
</defs>
</svg>
