<svg width="113" height="113" viewBox="0 0 113 113" fill="none" xmlns="http://www.w3.org/2000/svg">
<g clip-path="url(#clip0)">
<path d="M18.4999 92C-14.4842 53.168 24.8516 -1.95142 69.8448 5.56399C69.8448 5.56399 64.4328 15.0743 71.039 21.5845C77.6451 28.0947 87.036 21.8189 87.036 21.8189C87.036 21.8189 86.6234 27.1316 89.1207 30.5609C91.618 33.9902 96.9307 34.4028 96.9307 34.4028C96.9307 34.4028 92.5513 40.0465 95.5448 46.0023C98.5383 51.9581 106.495 51.5794 106.495 51.5794C109.553 101.04 51.484 130.832 18.4999 92Z" stroke="white" stroke-width="3"/>
<path d="M40.0995 85.0244L38.5897 87.4475L46.0807 92.1152L47.5905 89.6921L40.0995 85.0244Z" fill="white"/>
<path d="M54.9629 43C47.1252 43 40 49.3812 40 57.8537C40 66.3261 46.3088 72 54.9629 72C63.617 72 70 68.2174 70 57.8537C70 47.4899 62.8006 43 54.9629 43Z" stroke="white" stroke-width="2"/>
<path d="M51.9964 25.6711L53.4475 28.1296L61.0482 23.6434L59.5971 21.1848L51.9964 25.6711Z" fill="white"/>
<path d="M24.4968 65.1633L21.152 73.3309L23.794 74.4128L27.1388 66.2452L24.4968 65.1633Z" fill="#F2F2F2" fill-opacity="0.74"/>
<path d="M86 52.9292L86.624 55.7151L95.2369 53.7859L94.6128 51L86 52.9292Z" fill="white"/>
<path d="M24.8329 36.7494L25.1605 39.5854L33.9281 38.5728L33.6006 35.7368L24.8329 36.7494Z" fill="white" fill-opacity="0.36"/>
<path d="M86.7954 72.2939L86.2601 75.0983L94.93 76.7533L95.4653 73.9489L86.7954 72.2939Z" fill="#F2F2F2" fill-opacity="0.74"/>
<path d="M68.3001 87.0131L64.9553 95.1807L67.5972 96.2626L70.942 88.095L68.3001 87.0131Z" fill="white" fill-opacity="0.36"/>
<path d="M80.977 32.1309L77.6322 40.2985L80.2741 41.3804L83.6189 33.2128L80.977 32.1309Z" fill="#F2F2F2" fill-opacity="0.74"/>
</g>
<defs>
<clipPath id="clip0">
<rect width="113" height="113" fill="white"/>
</clipPath>
</defs>
</svg>
