<svg width="1143" height="327" viewBox="0 0 1143 327" fill="none" xmlns="http://www.w3.org/2000/svg">
<path d="M120.734 144V145H121.734V144H120.734ZM86.6523 144L85.7834 144.495L86.0711 145H86.6523V144ZM36.2617 55.5234L37.1307 55.0285L35.2617 51.747V55.5234H36.2617ZM36.2617 144V145H37.2617V144H36.2617ZM1.98438 144H0.984375V145H1.98438V144ZM1.98438 1.8125V0.8125H0.984375V1.8125H1.98438ZM36.2617 1.8125L37.1311 1.31833L36.8436 0.8125H36.2617V1.8125ZM86.5547 90.2891L85.6853 90.7832L87.5547 94.0719V90.2891H86.5547ZM86.5547 1.8125V0.8125H85.5547V1.8125H86.5547ZM120.734 1.8125H121.734V0.8125H120.734V1.8125ZM120.734 143H86.6523V145H120.734V143ZM87.5213 143.505L37.1307 55.0285L35.3928 56.0183L85.7834 144.495L87.5213 143.505ZM35.2617 55.5234V144H37.2617V55.5234H35.2617ZM36.2617 143H1.98438V145H36.2617V143ZM2.98438 144V1.8125H0.984375V144H2.98438ZM1.98438 2.8125H36.2617V0.8125H1.98438V2.8125ZM35.3924 2.30667L85.6853 90.7832L87.4241 89.7949L37.1311 1.31833L35.3924 2.30667ZM87.5547 90.2891V1.8125H85.5547V90.2891H87.5547ZM86.5547 2.8125H120.734V0.8125H86.5547V2.8125ZM119.734 1.8125V144H121.734V1.8125H119.734ZM224.934 117.438L225.888 117.139L225.669 116.438H224.934V117.438ZM177.961 117.438V116.438H177.223L177.005 117.142L177.961 117.438ZM169.758 144V145H170.496L170.713 144.295L169.758 144ZM133.137 144L132.198 143.656L131.705 145H133.137V144ZM185.285 1.8125V0.8125H184.587L184.346 1.46817L185.285 1.8125ZM217.512 1.8125L218.45 1.4659L218.208 0.8125H217.512V1.8125ZM270.051 144V145H271.486L270.989 143.653L270.051 144ZM233.234 144L232.28 144.298L232.499 145H233.234V144ZM186.164 90.9727L185.209 90.6775L184.809 91.9727H186.164V90.9727ZM216.73 90.9727V91.9727H218.089L217.685 90.6758L216.73 90.9727ZM201.398 41.6562L202.353 41.3594L201.395 38.278L200.443 41.3611L201.398 41.6562ZM224.934 116.438H177.961V118.438H224.934V116.438ZM177.005 117.142L168.802 143.705L170.713 144.295L178.916 117.733L177.005 117.142ZM169.758 143H133.137V145H169.758V143ZM134.076 144.344L186.224 2.15683L184.346 1.46817L132.198 143.656L134.076 144.344ZM185.285 2.8125H217.512V0.8125H185.285V2.8125ZM216.574 2.1591L269.113 144.347L270.989 143.653L218.45 1.4659L216.574 2.1591ZM270.051 143H233.234V145H270.051V143ZM234.189 143.702L225.888 117.139L223.979 117.736L232.28 144.298L234.189 143.702ZM186.164 91.9727H216.73V89.9727H186.164V91.9727ZM217.685 90.6758L202.353 41.3594L200.444 41.9531L215.776 91.2695L217.685 90.6758ZM200.443 41.3611L185.209 90.6775L187.12 91.2678L202.354 41.9514L200.443 41.3611ZM380.402 28.2773V29.2773H381.402V28.2773H380.402ZM337.727 28.2773V27.2773H336.727V28.2773H337.727ZM337.727 144V145H338.727V144H337.727ZM303.449 144H302.449V145H303.449V144ZM303.449 28.2773H304.449V27.2773H303.449V28.2773ZM261.555 28.2773H260.555V29.2773H261.555V28.2773ZM261.555 1.8125V0.8125H260.555V1.8125H261.555ZM380.402 1.8125H381.402V0.8125H380.402V1.8125ZM380.402 27.2773H337.727V29.2773H380.402V27.2773ZM336.727 28.2773V144H338.727V28.2773H336.727ZM337.727 143H303.449V145H337.727V143ZM304.449 144V28.2773H302.449V144H304.449ZM303.449 27.2773H261.555V29.2773H303.449V27.2773ZM262.555 28.2773V1.8125H260.555V28.2773H262.555ZM261.555 2.8125H380.402V0.8125H261.555V2.8125ZM379.402 1.8125V28.2773H381.402V1.8125H379.402ZM506.477 1.8125H507.477V0.8125H506.477V1.8125ZM499.738 122.32L500.602 122.825L500.603 122.822L499.738 122.32ZM394.465 95.5625H393.465L393.465 95.575L394.465 95.5625ZM394.465 1.8125V0.8125H393.465V1.8125H394.465ZM428.938 1.8125H429.938V0.8125H428.938V1.8125ZM428.938 96.2461H427.938V96.2586L427.938 96.2712L428.938 96.2461ZM472.199 1.8125V0.8125H471.199V1.8125H472.199ZM505.477 1.8125V94.8789H507.477V1.8125H505.477ZM505.477 94.8789C505.477 105.281 503.262 114.249 498.873 121.819L500.603 122.822C505.199 114.897 507.477 105.57 507.477 94.8789H505.477ZM498.875 121.816C494.488 129.317 488.197 135.043 479.969 138.997L480.836 140.8C489.405 136.681 496.004 130.688 500.602 122.825L498.875 121.816ZM479.969 138.997C471.733 142.955 461.959 144.953 450.617 144.953V146.953C462.192 146.953 472.274 144.914 480.836 140.8L479.969 138.997ZM450.617 144.953C433.473 144.953 420.098 140.509 410.369 131.734L409.029 133.219C419.223 142.413 433.126 146.953 450.617 146.953V144.953ZM410.369 131.734C400.65 122.968 395.657 110.947 395.465 95.55L393.465 95.575C393.663 111.428 398.827 124.017 409.029 133.219L410.369 131.734ZM395.465 95.5625V1.8125H393.465V95.5625H395.465ZM394.465 2.8125H428.938V0.8125H394.465V2.8125ZM427.938 1.8125V96.2461H429.938V1.8125H427.938ZM427.938 96.2712C428.136 104.184 430.076 110.295 433.918 114.432C437.776 118.585 443.402 120.586 450.617 120.586V118.586C443.769 118.586 438.751 116.696 435.383 113.07C431.998 109.427 430.129 103.868 429.937 96.221L427.938 96.2712ZM450.617 120.586C457.896 120.586 463.57 118.578 467.462 114.409L465.999 113.044C462.599 116.687 457.531 118.586 450.617 118.586V120.586ZM467.462 114.409C471.362 110.229 473.199 103.572 473.199 94.6836H471.199C471.199 103.373 469.39 109.411 465.999 113.044L467.462 114.409ZM473.199 94.6836V1.8125H471.199V94.6836H473.199ZM472.199 2.8125H506.477V0.8125H472.199V2.8125ZM580.793 93.8047L581.687 93.3575L581.411 92.8047H580.793V93.8047ZM562.238 93.8047V92.8047H561.238V93.8047H562.238ZM562.238 144V145H563.238V144H562.238ZM527.961 144H526.961V145H527.961V144ZM527.961 1.8125V0.8125H526.961V1.8125H527.961ZM631.672 69.3906L630.822 68.8637L630.818 68.8699L631.672 69.3906ZM612.922 85.2109L612.494 84.3071L611.557 84.7504L612.034 85.6708L612.922 85.2109ZM642.609 142.535H643.609V142.292L643.497 142.075L642.609 142.535ZM642.609 144V145H643.609V144H642.609ZM605.891 144L604.996 144.447L605.273 145H605.891V144ZM562.238 67.3398H561.238V68.3398H562.238V67.3398ZM598.566 62.2617L597.846 61.5683L597.846 61.5686L598.566 62.2617ZM598.566 33.5508L597.839 34.2374L597.846 34.2442L598.566 33.5508ZM562.238 28.2773V27.2773H561.238V28.2773H562.238ZM580.793 92.8047H562.238V94.8047H580.793V92.8047ZM561.238 93.8047V144H563.238V93.8047H561.238ZM562.238 143H527.961V145H562.238V143ZM528.961 144V1.8125H526.961V144H528.961ZM527.961 2.8125H583.918V0.8125H527.961V2.8125ZM583.918 2.8125C600.642 2.8125 613.579 6.52605 622.85 13.8285L624.088 12.2574C614.348 4.58592 600.918 0.8125 583.918 0.8125V2.8125ZM622.85 13.8285C632.081 21.0996 636.727 31.3706 636.727 44.7812H638.727C638.727 30.8481 633.867 19.9603 624.088 12.2574L622.85 13.8285ZM636.727 44.7812C636.727 54.5443 634.736 62.5515 630.822 68.8637L632.522 69.9176C636.681 63.2089 638.727 54.8098 638.727 44.7812H636.727ZM630.818 68.8699C626.97 75.1781 620.888 80.3342 612.494 84.3071L613.35 86.1148C622.013 82.0148 628.431 76.624 632.526 69.9114L630.818 68.8699ZM612.034 85.6708L641.721 142.995L643.497 142.075L613.81 84.7511L612.034 85.6708ZM641.609 142.535V144H643.609V142.535H641.609ZM642.609 143H605.891V145H642.609V143ZM606.785 143.553L581.687 93.3575L579.899 94.2519L604.996 144.447L606.785 143.553ZM562.238 68.3398H583.918V66.3398H562.238V68.3398ZM583.918 68.3398C590.593 68.3398 595.78 66.6023 599.287 62.9548L597.846 61.5686C594.842 64.6919 590.264 66.3398 583.918 66.3398V68.3398ZM599.287 62.9551C602.833 59.2705 604.547 54.2097 604.547 47.9062H602.547C602.547 53.8424 600.941 58.3519 597.846 61.5683L599.287 62.9551ZM604.547 47.9062C604.547 41.6028 602.833 36.542 599.287 32.8574L597.846 34.2442C600.941 37.4606 602.547 41.9701 602.547 47.9062H604.547ZM599.293 32.8642C595.727 29.0883 590.543 27.2773 583.918 27.2773V29.2773C590.184 29.2773 594.765 30.982 597.839 34.2374L599.293 32.8642ZM583.918 27.2773H562.238V29.2773H583.918V27.2773ZM561.238 28.2773V67.3398H563.238V28.2773H561.238ZM739.191 117.438L740.146 117.139L739.927 116.438H739.191V117.438ZM692.219 117.438V116.438H691.481L691.263 117.142L692.219 117.438ZM684.016 144V145H684.753L684.971 144.295L684.016 144ZM647.395 144L646.456 143.656L645.963 145H647.395V144ZM699.543 1.8125V0.8125H698.845L698.604 1.46817L699.543 1.8125ZM731.77 1.8125L732.708 1.4659L732.466 0.8125H731.77V1.8125ZM784.309 144V145H785.744L785.247 143.653L784.309 144ZM747.492 144L746.538 144.298L746.757 145H747.492V144ZM700.422 90.9727L699.466 90.6775L699.066 91.9727H700.422V90.9727ZM730.988 90.9727V91.9727H732.346L731.943 90.6758L730.988 90.9727ZM715.656 41.6562L716.611 41.3594L715.653 38.278L714.701 41.3611L715.656 41.6562ZM739.191 116.438H692.219V118.438H739.191V116.438ZM691.263 117.142L683.06 143.705L684.971 144.295L693.174 117.733L691.263 117.142ZM684.016 143H647.395V145H684.016V143ZM648.333 144.344L700.482 2.15683L698.604 1.46817L646.456 143.656L648.333 144.344ZM699.543 2.8125H731.77V0.8125H699.543V2.8125ZM730.832 2.1591L783.371 144.347L785.247 143.653L732.708 1.4659L730.832 2.1591ZM784.309 143H747.492V145H784.309V143ZM748.447 143.702L740.146 117.139L738.237 117.736L746.538 144.298L748.447 143.702ZM700.422 91.9727H730.988V89.9727H700.422V91.9727ZM731.943 90.6758L716.611 41.3594L714.701 41.9531L730.033 91.2695L731.943 90.6758ZM714.701 41.3611L699.466 90.6775L701.377 91.2678L716.612 41.9514L714.701 41.3611ZM829.035 117.633H828.035V118.633H829.035V117.633ZM888.703 117.633H889.703V116.633H888.703V117.633ZM888.703 144V145H889.703V144H888.703ZM794.758 144H793.758V145H794.758V144ZM794.758 1.8125V0.8125H793.758V1.8125H794.758ZM829.035 1.8125H830.035V0.8125H829.035V1.8125ZM829.035 118.633H888.703V116.633H829.035V118.633ZM887.703 117.633V144H889.703V117.633H887.703ZM888.703 143H794.758V145H888.703V143ZM795.758 144V1.8125H793.758V144H795.758ZM794.758 2.8125H829.035V0.8125H794.758V2.8125ZM828.035 1.8125V117.633H830.035V1.8125H828.035ZM1021.91 144V145H1022.91V144H1021.91ZM987.824 144L986.955 144.495L987.243 145H987.824V144ZM937.434 55.5234L938.303 55.0285L936.434 51.747V55.5234H937.434ZM937.434 144V145H938.434V144H937.434ZM903.156 144H902.156V145H903.156V144ZM903.156 1.8125V0.8125H902.156V1.8125H903.156ZM937.434 1.8125L938.303 1.31833L938.015 0.8125H937.434V1.8125ZM987.727 90.2891L986.857 90.7832L988.727 94.0719V90.2891H987.727ZM987.727 1.8125V0.8125H986.727V1.8125H987.727ZM1021.91 1.8125H1022.91V0.8125H1021.91V1.8125ZM1021.91 143H987.824V145H1021.91V143ZM988.693 143.505L938.303 55.0285L936.565 56.0183L986.955 144.495L988.693 143.505ZM936.434 55.5234V144H938.434V55.5234H936.434ZM937.434 143H903.156V145H937.434V143ZM904.156 144V1.8125H902.156V144H904.156ZM903.156 2.8125H937.434V0.8125H903.156V2.8125ZM936.564 2.30667L986.857 90.7832L988.596 89.7949L938.303 1.31833L936.564 2.30667ZM988.727 90.2891V1.8125H986.727V90.2891H988.727ZM987.727 2.8125H1021.91V0.8125H987.727V2.8125ZM1020.91 1.8125V144H1022.91V1.8125H1020.91ZM1131.77 83.7461V84.7461H1132.77V83.7461H1131.77ZM1077.86 83.7461V82.7461H1076.86V83.7461H1077.86ZM1077.86 117.633H1076.86V118.633H1077.86V117.633ZM1141.54 117.633H1142.54V116.633H1141.54V117.633ZM1141.54 144V145H1142.54V144H1141.54ZM1043.59 144H1042.59V145H1043.59V144ZM1043.59 1.8125V0.8125H1042.59V1.8125H1043.59ZM1141.73 1.8125H1142.73V0.8125H1141.73V1.8125ZM1141.73 28.2773V29.2773H1142.73V28.2773H1141.73ZM1077.86 28.2773V27.2773H1076.86V28.2773H1077.86ZM1077.86 58.2578H1076.86V59.2578H1077.86V58.2578ZM1131.77 58.2578H1132.77V57.2578H1131.77V58.2578ZM1131.77 82.7461H1077.86V84.7461H1131.77V82.7461ZM1076.86 83.7461V117.633H1078.86V83.7461H1076.86ZM1077.86 118.633H1141.54V116.633H1077.86V118.633ZM1140.54 117.633V144H1142.54V117.633H1140.54ZM1141.54 143H1043.59V145H1141.54V143ZM1044.59 144V1.8125H1042.59V144H1044.59ZM1043.59 2.8125H1141.73V0.8125H1043.59V2.8125ZM1140.73 1.8125V28.2773H1142.73V1.8125H1140.73ZM1141.73 27.2773H1077.86V29.2773H1141.73V27.2773ZM1076.86 28.2773V58.2578H1078.86V28.2773H1076.86ZM1077.86 59.2578H1131.77V57.2578H1077.86V59.2578ZM1130.77 58.2578V83.7461H1132.77V58.2578H1130.77ZM136.164 274.488L135.541 275.271L135.548 275.276L136.164 274.488ZM117.512 265.797L117.193 266.745L117.512 265.797ZM95.6367 257.105L96.0798 256.209L96.0776 256.208L95.6367 257.105ZM74.8359 199L74.0411 198.393L74.0401 198.394L74.8359 199ZM94.3672 184.938L94.7349 185.867L94.7411 185.865L94.3672 184.938ZM150.129 185.328L149.717 186.239L149.72 186.241L150.129 185.328ZM169.074 200.953L168.241 201.506L168.243 201.51L169.074 200.953ZM175.812 224V225H176.812V224H175.812ZM141.633 224H140.633V225H141.633V224ZM136.262 210.523L135.59 211.264L135.597 211.27L136.262 210.523ZM107.355 209.84L107.96 210.636L107.962 210.635L107.355 209.84ZM107.941 230.055L107.333 230.848L107.341 230.855L107.941 230.055ZM128.547 239.234L128.238 240.186L128.244 240.187L128.547 239.234ZM152.766 249.391L152.266 250.257L152.266 250.257L152.766 249.391ZM91.8281 319.801L91.4196 320.714L91.4273 320.717L91.8281 319.801ZM70.7344 302.809L69.8954 303.353L69.9012 303.362L70.7344 302.809ZM63.7031 277.906V276.906H62.7031V277.906H63.7031ZM98.0781 277.906H99.0781V276.906H98.0781V277.906ZM103.938 294.801L103.255 295.532L103.261 295.538L103.268 295.543L103.938 294.801ZM136.555 296.559L137.15 297.362L137.152 297.36L136.555 296.559ZM142.535 286.207C142.535 280.923 140.63 276.711 136.78 273.7L135.548 275.276C138.859 277.865 140.535 281.465 140.535 286.207H142.535ZM136.787 273.706C133.126 270.791 126.766 267.849 117.83 264.849L117.193 266.745C126.096 269.734 132.171 272.587 135.541 275.271L136.787 273.706ZM117.83 264.849C108.935 261.862 101.689 258.981 96.0798 256.209L95.1936 258.002C100.912 260.828 108.25 263.742 117.193 266.745L117.83 264.849ZM96.0776 256.208C77.8747 247.267 69 235.122 69 219.801H67C67 236.121 76.5498 248.845 95.1959 258.003L96.0776 256.208ZM69 219.801C69 212.131 71.2134 205.413 75.6318 199.606L74.0401 198.394C69.3439 204.567 67 211.715 67 219.801H69ZM75.6308 199.607C80.1238 193.722 86.4739 189.133 94.7348 185.867L93.9995 184.008C85.4636 187.382 78.7928 192.169 74.0411 198.393L75.6308 199.607ZM94.7411 185.865C103.003 182.534 112.314 180.859 122.688 180.859V178.859C112.098 178.859 102.528 180.57 93.9933 184.01L94.7411 185.865ZM122.688 180.859C132.789 180.859 141.792 182.66 149.717 186.239L150.54 184.417C142.32 180.704 133.029 178.859 122.688 178.859V180.859ZM149.72 186.241C157.703 189.817 163.863 194.908 168.241 201.506L169.907 200.4C165.301 193.457 158.831 188.131 150.538 184.416L149.72 186.241ZM168.243 201.51C172.617 208.039 174.812 215.524 174.812 224H176.812C176.812 215.158 174.516 207.279 169.905 200.397L168.243 201.51ZM175.812 223H141.633V225H175.812V223ZM142.633 224C142.633 217.985 140.765 213.196 136.927 209.777L135.597 211.27C138.92 214.231 140.633 218.426 140.633 224H142.633ZM136.934 209.783C133.188 206.384 128.139 204.738 121.906 204.738V206.738C127.783 206.738 132.305 208.283 135.59 211.264L136.934 209.783ZM121.906 204.738C115.645 204.738 110.557 206.137 106.749 209.045L107.962 210.635C111.316 208.074 115.928 206.738 121.906 206.738V204.738ZM106.751 209.043C103.003 211.889 101.082 215.593 101.082 220.094H103.082C103.082 216.261 104.676 213.13 107.96 210.636L106.751 209.043ZM101.082 220.094C101.082 224.151 103.273 227.736 107.333 230.848L108.55 229.261C104.798 226.384 103.082 223.328 103.082 220.094H101.082ZM107.341 230.855C111.389 233.89 118.393 236.991 128.238 240.186L128.856 238.283C119.039 235.098 112.307 232.079 108.541 229.255L107.341 230.855ZM128.244 240.187C138.032 243.299 146.033 246.658 152.266 250.257L153.266 248.525C146.868 244.831 138.723 241.42 128.85 238.281L128.244 240.187ZM152.266 250.257C167.373 258.963 174.812 270.866 174.812 286.012H176.812C176.812 270.038 168.887 257.527 153.265 248.524L152.266 250.257ZM174.812 286.012C174.812 298.154 170.255 307.616 161.146 314.511L162.354 316.106C171.995 308.808 176.812 298.739 176.812 286.012H174.812ZM161.146 314.511C152.002 321.433 139.382 324.953 123.176 324.953V326.953C139.652 326.953 152.748 323.376 162.354 316.106L161.146 314.511ZM123.176 324.953C111.773 324.953 101.463 322.924 92.2289 318.885L91.4273 320.717C100.944 324.88 111.532 326.953 123.176 326.953V324.953ZM92.2366 318.888C83.0668 314.784 76.1974 309.232 71.5676 302.256L69.9012 303.362C74.7766 310.708 81.9696 316.484 91.4196 320.714L92.2366 318.888ZM71.5733 302.264C67.0002 295.214 64.7031 287.106 64.7031 277.906H62.7031C62.7031 287.457 65.0935 295.95 69.8954 303.353L71.5733 302.264ZM63.7031 278.906H98.0781V276.906H63.7031V278.906ZM97.0781 277.906C97.0781 285.68 99.0726 291.628 103.255 295.532L104.62 294.07C100.99 290.682 99.0781 285.366 99.0781 277.906H97.0781ZM103.268 295.543C107.511 299.369 114.226 301.172 123.176 301.172V299.172C114.417 299.172 108.307 297.394 104.607 294.058L103.268 295.543ZM123.176 301.172C128.971 301.172 133.666 299.941 137.15 297.362L135.96 295.755C132.933 297.994 128.709 299.172 123.176 299.172V301.172ZM137.152 297.36C140.746 294.683 142.535 290.925 142.535 286.207H140.535C140.535 290.344 139.004 293.486 135.957 295.757L137.152 297.36ZM241.73 271.07L242.599 270.574L241.917 269.382L240.991 270.397L241.73 271.07ZM227.668 286.5L226.929 285.826L226.668 286.113V286.5H227.668ZM227.668 324V325H228.668V324H227.668ZM193.391 324H192.391V325H193.391V324ZM193.391 181.812V180.812H192.391V181.812H193.391ZM227.668 181.812H228.668V180.812H227.668V181.812ZM227.668 244.508H226.668V247.841L228.503 245.058L227.668 244.508ZM239.582 226.441L238.758 225.875L238.752 225.883L238.747 225.891L239.582 226.441ZM270.246 181.812V180.812H269.72L269.422 181.246L270.246 181.812ZM312.629 181.812L313.424 182.42L314.651 180.812H312.629V181.812ZM264.582 244.703L263.787 244.096L263.373 244.638L263.727 245.221L264.582 244.703ZM312.629 324V325H314.404L313.484 323.482L312.629 324ZM272.004 324L271.136 324.496L271.424 325H272.004V324ZM240.991 270.397L226.929 285.826L228.407 287.174L242.47 271.744L240.991 270.397ZM226.668 286.5V324H228.668V286.5H226.668ZM227.668 323H193.391V325H227.668V323ZM194.391 324V181.812H192.391V324H194.391ZM193.391 182.812H227.668V180.812H193.391V182.812ZM226.668 181.812V244.508H228.668V181.812H226.668ZM228.503 245.058L240.417 226.992L238.747 225.891L226.833 243.957L228.503 245.058ZM240.406 227.008L271.07 182.379L269.422 181.246L238.758 225.875L240.406 227.008ZM270.246 182.812H312.629V180.812H270.246V182.812ZM311.834 181.205L263.787 244.096L265.377 245.31L313.424 182.42L311.834 181.205ZM263.727 245.221L311.774 324.518L313.484 323.482L265.437 244.185L263.727 245.221ZM312.629 323H272.004V325H312.629V323ZM272.872 323.504L242.599 270.574L240.862 271.567L271.136 324.496L272.872 323.504ZM360.578 234.742H359.578V236.052L360.842 235.707L360.578 234.742ZM379.523 229.566H380.523V228.257L379.26 228.602L379.523 229.566ZM379.523 246.949L379.787 247.914L380.523 247.713V246.949H379.523ZM360.578 252.125L360.315 251.16L359.578 251.362V252.125H360.578ZM360.578 297.633H359.578V298.633H360.578V297.633ZM420.246 297.633H421.246V296.633H420.246V297.633ZM420.246 324V325H421.246V324H420.246ZM326.301 324H325.301V325H326.301V324ZM326.301 261.598H327.301V260.289L326.038 260.633L326.301 261.598ZM313.02 265.211H312.02V266.519L313.282 266.176L313.02 265.211ZM313.02 247.828L312.757 246.863L312.02 247.064V247.828H313.02ZM326.301 244.215L326.563 245.18L327.301 244.979V244.215H326.301ZM326.301 181.812V180.812H325.301V181.812H326.301ZM360.578 181.812H361.578V180.812H360.578V181.812ZM360.842 235.707L379.787 230.531L379.26 228.602L360.315 233.778L360.842 235.707ZM378.523 229.566V246.949H380.523V229.566H378.523ZM379.26 245.985L360.315 251.16L360.842 253.09L379.787 247.914L379.26 245.985ZM359.578 252.125V297.633H361.578V252.125H359.578ZM360.578 298.633H420.246V296.633H360.578V298.633ZM419.246 297.633V324H421.246V297.633H419.246ZM420.246 323H326.301V325H420.246V323ZM327.301 324V261.598H325.301V324H327.301ZM326.038 260.633L312.757 264.246L313.282 266.176L326.563 262.563L326.038 260.633ZM314.02 265.211V247.828H312.02V265.211H314.02ZM313.282 248.793L326.563 245.18L326.038 243.25L312.757 246.863L313.282 248.793ZM327.301 244.215V181.812H325.301V244.215H327.301ZM326.301 182.812H360.578V180.812H326.301V182.812ZM359.578 181.812V234.742H361.578V181.812H359.578ZM515.363 297.438L516.318 297.139L516.098 296.438H515.363V297.438ZM468.391 297.438V296.438H467.653L467.435 297.142L468.391 297.438ZM460.188 324V325H460.925L461.143 324.295L460.188 324ZM423.566 324L422.628 323.656L422.135 325H423.566V324ZM475.715 181.812V180.812H475.016L474.776 181.468L475.715 181.812ZM507.941 181.812L508.879 181.466L508.638 180.812H507.941V181.812ZM560.48 324V325H561.916L561.418 323.653L560.48 324ZM523.664 324L522.71 324.298L522.929 325H523.664V324ZM476.594 270.973L475.638 270.678L475.238 271.973H476.594V270.973ZM507.16 270.973V271.973H508.518L508.115 270.676L507.16 270.973ZM491.828 221.656L492.783 221.359L491.825 218.278L490.873 221.361L491.828 221.656ZM515.363 296.438H468.391V298.438H515.363V296.438ZM467.435 297.142L459.232 323.705L461.143 324.295L469.346 297.733L467.435 297.142ZM460.188 323H423.566V325H460.188V323ZM424.505 324.344L476.654 182.157L474.776 181.468L422.628 323.656L424.505 324.344ZM475.715 182.812H507.941V180.812H475.715V182.812ZM507.003 182.159L559.542 324.347L561.418 323.653L508.879 181.466L507.003 182.159ZM560.48 323H523.664V325H560.48V323ZM524.619 323.702L516.318 297.139L514.409 297.736L522.71 324.298L524.619 323.702ZM476.594 271.973H507.16V269.973H476.594V271.973ZM508.115 270.676L492.783 221.359L490.873 221.953L506.205 271.27L508.115 270.676ZM490.873 221.361L475.638 270.678L477.549 271.268L492.784 221.951L490.873 221.361ZM570.93 324H569.93V325H570.93V324ZM570.93 181.812V180.812H569.93V181.812H570.93ZM650.617 190.406L650.121 191.275L650.125 191.277L650.617 190.406ZM674.055 214.527L673.174 215.001L673.177 215.007L674.055 214.527ZM682.648 249.391H683.648L683.648 249.386L682.648 249.391ZM674.348 290.992L673.466 290.521L673.465 290.523L674.348 290.992ZM651.105 315.211L651.608 316.075L651.61 316.074L651.105 315.211ZM617.707 324V325L617.712 325L617.707 324ZM605.207 208.277V207.277H604.207V208.277H605.207ZM605.207 297.633H604.207V298.633H605.207V297.633ZM639.777 287.184L640.575 287.787L640.577 287.784L639.777 287.184ZM639.777 218.727L640.575 218.123L639.777 218.727ZM571.93 324V181.812H569.93V324H571.93ZM570.93 182.812H616.73V180.812H570.93V182.812ZM616.73 182.812C629.137 182.812 640.259 185.639 650.121 191.274L651.113 189.538C640.923 183.715 629.454 180.812 616.73 180.812V182.812ZM650.125 191.277C659.982 196.845 667.662 204.746 673.174 215.001L674.936 214.054C669.25 203.475 661.304 195.295 651.109 189.536L650.125 191.277ZM673.177 215.007C678.755 225.2 681.584 236.655 681.648 249.396L683.648 249.386C683.583 236.345 680.683 224.558 674.932 214.047L673.177 215.007ZM681.648 249.391V255.934H683.648V249.391H681.648ZM681.648 255.934C681.648 268.808 678.914 280.33 673.466 290.521L675.23 291.464C680.849 280.952 683.648 269.101 683.648 255.934H681.648ZM673.465 290.523C668.083 300.646 660.466 308.582 650.601 314.348L651.61 316.074C661.797 310.121 669.675 301.911 675.231 291.462L673.465 290.523ZM650.603 314.347C640.803 320.047 629.844 322.936 617.702 323L617.712 325C630.18 324.934 641.486 321.963 651.608 316.075L650.603 314.347ZM617.707 323H570.93V325H617.707V323ZM604.207 208.277V297.633H606.207V208.277H604.207ZM605.207 298.633H617.121V296.633H605.207V298.633ZM617.121 298.633C627.22 298.633 635.087 295.037 640.575 287.787L638.98 286.58C633.921 293.263 626.684 296.633 617.121 296.633V298.633ZM640.577 287.784C646.036 280.505 648.688 269.837 648.688 255.934H646.688C646.688 269.634 644.066 279.799 638.977 286.584L640.577 287.784ZM648.688 255.934V249.781H646.688V255.934H648.688ZM648.688 249.781C648.688 235.943 646.036 225.337 640.575 218.123L638.98 219.33C644.066 226.048 646.688 236.146 646.688 249.781H648.688ZM640.575 218.123C635.081 210.866 627.08 207.277 616.73 207.277V209.277C626.564 209.277 633.927 212.655 638.98 219.33L640.575 218.123ZM616.73 207.277H605.207V209.277H616.73V207.277ZM818.977 324V325H819.977V324H818.977ZM784.895 324L784.026 324.495L784.313 325H784.895V324ZM734.504 235.523L735.373 235.029L733.504 231.747V235.523H734.504ZM734.504 324V325H735.504V324H734.504ZM700.227 324H699.227V325H700.227V324ZM700.227 181.812V180.812H699.227V181.812H700.227ZM734.504 181.812L735.373 181.318L735.086 180.812H734.504V181.812ZM784.797 270.289L783.928 270.783L785.797 274.072V270.289H784.797ZM784.797 181.812V180.812H783.797V181.812H784.797ZM818.977 181.812H819.977V180.812H818.977V181.812ZM818.977 323H784.895V325H818.977V323ZM785.763 323.505L735.373 235.029L733.635 236.018L784.026 324.495L785.763 323.505ZM733.504 235.523V324H735.504V235.523H733.504ZM734.504 323H700.227V325H734.504V323ZM701.227 324V181.812H699.227V324H701.227ZM700.227 182.812H734.504V180.812H700.227V182.812ZM733.635 182.307L783.928 270.783L785.666 269.795L735.373 181.318L733.635 182.307ZM785.797 270.289V181.812H783.797V270.289H785.797ZM784.797 182.812H818.977V180.812H784.797V182.812ZM817.977 181.812V324H819.977V181.812H817.977ZM877.18 324V325H878.18V324H877.18ZM843 324H842V325H843V324ZM843 181.812V180.812H842V181.812H843ZM877.18 181.812H878.18V180.812H877.18V181.812ZM877.18 323H843V325H877.18V323ZM844 324V181.812H842V324H844ZM843 182.812H877.18V180.812H843V182.812ZM876.18 181.812V324H878.18V181.812H876.18ZM949.348 271.07L950.216 270.574L949.534 269.382L948.609 270.397L949.348 271.07ZM935.285 286.5L934.546 285.826L934.285 286.113V286.5H935.285ZM935.285 324V325H936.285V324H935.285ZM901.008 324H900.008V325H901.008V324ZM901.008 181.812V180.812H900.008V181.812H901.008ZM935.285 181.812H936.285V180.812H935.285V181.812ZM935.285 244.508H934.285V247.841L936.12 245.058L935.285 244.508ZM947.199 226.441L946.375 225.875L946.37 225.883L946.364 225.891L947.199 226.441ZM977.863 181.812V180.812H977.337L977.039 181.246L977.863 181.812ZM1020.25 181.812L1021.04 182.42L1022.27 180.812H1020.25V181.812ZM972.199 244.703L971.405 244.096L970.991 244.638L971.344 245.221L972.199 244.703ZM1020.25 324V325H1022.02L1021.1 323.482L1020.25 324ZM979.621 324L978.753 324.496L979.041 325H979.621V324ZM948.609 270.397L934.546 285.826L936.024 287.174L950.087 271.744L948.609 270.397ZM934.285 286.5V324H936.285V286.5H934.285ZM935.285 323H901.008V325H935.285V323ZM902.008 324V181.812H900.008V324H902.008ZM901.008 182.812H935.285V180.812H901.008V182.812ZM934.285 181.812V244.508H936.285V181.812H934.285ZM936.12 245.058L948.034 226.992L946.364 225.891L934.45 243.957L936.12 245.058ZM948.023 227.008L978.687 182.379L977.039 181.246L946.375 225.875L948.023 227.008ZM977.863 182.812H1020.25V180.812H977.863V182.812ZM1019.45 181.205L971.405 244.096L972.994 245.31L1021.04 182.42L1019.45 181.205ZM971.344 245.221L1019.39 324.518L1021.1 323.482L973.054 244.185L971.344 245.221ZM1020.25 323H979.621V325H1020.25V323ZM980.489 323.504L950.216 270.574L948.48 271.567L978.753 324.496L980.489 323.504ZM1065.46 324V325H1066.46V324H1065.46ZM1031.28 324H1030.28V325H1031.28V324ZM1031.28 181.812V180.812H1030.28V181.812H1031.28ZM1065.46 181.812H1066.46V180.812H1065.46V181.812ZM1065.46 323H1031.28V325H1065.46V323ZM1032.28 324V181.812H1030.28V324H1032.28ZM1031.28 182.812H1065.46V180.812H1031.28V182.812ZM1064.46 181.812V324H1066.46V181.812H1064.46Z" fill="#F3F3F3"/>
</svg>
