<svg width="1085" height="305" viewBox="0 0 1085 305" fill="none" xmlns="http://www.w3.org/2000/svg">
<path d="M101.391 24.6357H65.1162V123H35.9805V24.6357H0.370117V2.14062H101.391V24.6357ZM158.666 80.334H142.895V123H113.759V2.14062H161.322C175.655 2.14062 186.861 5.32259 194.94 11.6865C203.02 18.0505 207.06 27.043 207.06 38.6641C207.06 47.0755 205.344 54.0482 201.913 59.582C198.537 65.1159 193.225 69.5983 185.976 73.0293L211.21 121.755V123H179.999L158.666 80.334ZM142.895 57.8389H161.322C166.856 57.8389 171.007 56.4001 173.773 53.5225C176.596 50.5895 178.007 46.5221 178.007 41.3203C178.007 36.1185 176.596 32.0511 173.773 29.1182C170.951 26.1299 166.801 24.6357 161.322 24.6357H142.895V57.8389ZM293.305 100.422H253.378L246.405 123H215.277L259.604 2.14062H286.996L331.654 123H300.36L293.305 100.422ZM260.351 77.9268H286.332L273.3 36.0078L260.351 77.9268ZM340.536 123V2.14062H379.467C390.147 2.14062 399.748 4.57552 408.271 9.44531C416.793 14.2598 423.433 21.0941 428.192 29.9482C433.007 38.7471 435.442 48.625 435.497 59.582V65.1436C435.497 76.2113 433.145 86.1445 428.441 94.9434C423.793 103.687 417.208 110.549 408.686 115.529C400.219 120.454 390.756 122.945 380.297 123H340.536ZM369.672 24.6357V100.588H379.799C388.155 100.588 394.574 97.6273 399.057 91.7061C403.539 85.7295 405.78 76.8753 405.78 65.1436V59.9141C405.78 48.2376 403.539 39.4388 399.057 33.5176C394.574 27.5964 388.044 24.6357 379.467 24.6357H369.672ZM491.029 54.6016L513.275 2.14062H544.735L505.805 79.5869V123H476.254V79.5869L437.406 2.14062H468.7L491.029 54.6016ZM648.827 82.0771C648.44 90.4886 646.171 97.9316 642.021 104.406C637.87 110.826 632.032 115.806 624.506 119.348C617.035 122.889 608.485 124.66 598.856 124.66C582.974 124.66 570.468 119.486 561.337 109.138C552.206 98.7894 547.641 84.18 547.641 65.3096V59.333C547.641 47.4906 549.688 37.1423 553.783 28.2881C557.934 19.3786 563.882 12.5166 571.63 7.70215C579.377 2.83236 588.342 0.397461 598.524 0.397461C613.189 0.397461 624.976 4.27116 633.886 12.0186C642.795 19.7106 647.859 30.3356 649.076 43.8936H620.023C619.802 36.5335 617.948 31.2487 614.462 28.0391C610.976 24.8294 605.663 23.2246 598.524 23.2246C591.275 23.2246 585.963 25.9362 582.587 31.3594C579.211 36.7826 577.44 45.443 577.274 57.3408V65.8906C577.274 78.7845 578.879 87.9984 582.089 93.5322C585.354 99.0661 590.943 101.833 598.856 101.833C605.552 101.833 610.671 100.256 614.213 97.1016C617.755 93.9473 619.636 88.9391 619.857 82.0771H648.827ZM706.85 54.6016L729.096 2.14062H760.556L721.625 79.5869V123H692.074V79.5869L653.227 2.14062H684.521L706.85 54.6016ZM809.53 2.14062H838.583V85.0654C838.583 92.7575 836.785 99.6195 833.188 105.651C829.646 111.683 824.665 116.359 818.246 119.68C811.882 123 804.771 124.66 796.913 124.66C783.743 124.66 773.505 121.34 766.2 114.699C758.896 108.059 755.243 98.651 755.243 86.4766H784.462C784.462 92.0104 785.403 96.0225 787.284 98.5127C789.221 101.003 792.431 102.248 796.913 102.248C800.953 102.248 804.052 100.754 806.21 97.7656C808.424 94.722 809.53 90.4886 809.53 85.0654V2.14062ZM957.948 123H928.979L886.146 47.7949V123H857.011V2.14062H886.146L928.896 77.3457V2.14062H957.948V123ZM1046.52 100.422H1006.59L999.618 123H968.49L1012.82 2.14062H1040.21L1084.87 123H1053.57L1046.52 100.422ZM1013.56 77.9268H1039.54L1026.51 36.0078L1013.56 77.9268ZM109.774 260.334H94.0029V303H64.8672V182.141H112.431C126.763 182.141 137.969 185.323 146.049 191.687C154.128 198.05 158.168 207.043 158.168 218.664C158.168 227.076 156.452 234.048 153.021 239.582C149.646 245.116 144.333 249.598 137.084 253.029L162.318 301.755V303H131.107L109.774 260.334ZM94.0029 237.839H112.431C117.965 237.839 122.115 236.4 124.882 233.522C127.704 230.59 129.115 226.522 129.115 221.32C129.115 216.118 127.704 212.051 124.882 209.118C122.06 206.13 117.909 204.636 112.431 204.636H94.0029V237.839ZM250.722 251.784H204.901V280.588H259.022V303H175.766V182.141H259.188V204.636H204.901V230.119H250.722V251.784ZM368.676 262.077C368.288 270.489 366.02 277.932 361.869 284.406C357.719 290.826 351.881 295.806 344.354 299.348C336.884 302.889 328.334 304.66 318.705 304.66C302.823 304.66 290.316 299.486 281.186 289.138C272.055 278.789 267.489 264.18 267.489 245.31V239.333C267.489 227.491 269.537 217.142 273.632 208.288C277.782 199.379 283.731 192.517 291.479 187.702C299.226 182.832 308.191 180.397 318.373 180.397C333.038 180.397 344.825 184.271 353.734 192.019C362.644 199.711 367.707 210.336 368.925 223.894H339.872C339.651 216.534 337.797 211.249 334.311 208.039C330.824 204.829 325.512 203.225 318.373 203.225C311.124 203.225 305.811 205.936 302.436 211.359C299.06 216.783 297.289 225.443 297.123 237.341V245.891C297.123 258.785 298.728 267.998 301.938 273.532C305.202 279.066 310.792 281.833 318.705 281.833C325.401 281.833 330.52 280.256 334.062 277.102C337.603 273.947 339.485 268.939 339.706 262.077H368.676ZM457.411 251.784H411.591V280.588H465.712V303H382.455V182.141H465.878V204.636H411.591V230.119H457.411V251.784ZM506.718 261.994V303H477.582V182.141H525.81C535.051 182.141 543.214 183.856 550.297 187.287C557.436 190.663 562.942 195.505 566.815 201.813C570.744 208.067 572.709 215.178 572.709 223.146C572.709 234.934 568.476 244.369 560.009 251.452C551.597 258.48 540.032 261.994 525.312 261.994H506.718ZM506.718 239.499H525.81C531.454 239.499 535.743 238.088 538.676 235.266C541.664 232.443 543.158 228.459 543.158 223.312C543.158 217.668 541.636 213.158 538.593 209.782C535.549 206.407 531.399 204.691 526.142 204.636H506.718V239.499ZM683.192 204.636H646.918V303H617.782V204.636H582.172V182.141H683.192V204.636ZM790.355 182.141V261.247C790.355 270.212 788.446 277.987 784.628 284.572C780.81 291.102 775.331 296.083 768.192 299.514C761.054 302.945 752.615 304.66 742.875 304.66C728.155 304.66 716.562 300.842 708.095 293.205C699.628 285.568 695.312 275.109 695.146 261.828V182.141H724.447V262.409C724.779 275.635 730.922 282.248 742.875 282.248C748.907 282.248 753.472 280.588 756.571 277.268C759.67 273.947 761.22 268.552 761.22 261.081V182.141H790.355ZM853.524 260.334H837.753V303H808.617V182.141H856.181C870.513 182.141 881.719 185.323 889.799 191.687C897.878 198.05 901.918 207.043 901.918 218.664C901.918 227.076 900.202 234.048 896.771 239.582C893.396 245.116 888.083 249.598 880.834 253.029L906.068 301.755V303H874.857L853.524 260.334ZM837.753 237.839H856.181C861.715 237.839 865.865 236.4 868.632 233.522C871.454 230.59 872.865 226.522 872.865 221.32C872.865 216.118 871.454 212.051 868.632 209.118C865.81 206.13 861.659 204.636 856.181 204.636H837.753V237.839ZM988.163 280.422H948.236L941.264 303H910.136L954.462 182.141H981.854L1026.51 303H995.219L988.163 280.422ZM955.209 257.927H981.19L968.158 216.008L955.209 257.927Z" fill="#F3F3F3"/>
</svg>
