<svg width="1190" height="720" viewBox="0 0 1190 720" fill="none" xmlns="http://www.w3.org/2000/svg">
<path d="M193.209 53.2195C228.387 57.5795 264.052 55.8631 298.648 48.1453C306.212 46.4201 303.014 34.9017 295.45 36.5762C261.965 44.3921 227.557 47.5341 193.209 45.9127C188.437 45.6083 188.64 52.8643 193.209 53.2195Z" fill="black"/>
<path d="M367.131 43.2736C395.711 42.7155 424.698 42.9692 453.025 41.2947C460.792 40.838 460.944 28.863 453.025 29.1167C424.394 30.0808 395.711 33.1253 367.131 35.155C361.953 35.5101 361.851 43.3751 367.131 43.2736Z" fill="black"/>
<path d="M556.942 38.4028C587.513 40.711 618.188 41.3208 648.827 40.2295C650.392 40.0886 651.848 39.3674 652.908 38.2078C653.969 37.0481 654.557 35.534 654.557 33.9629C654.557 32.3919 653.969 30.8777 652.908 29.7181C651.848 28.5585 650.392 27.8373 648.827 27.6963C618.166 26.9684 587.489 27.9679 556.942 30.6901C556.435 30.6901 555.933 30.7899 555.465 30.9837C554.997 31.1775 554.572 31.4615 554.214 31.8196C553.855 32.1777 553.571 32.6028 553.377 33.0707C553.183 33.5386 553.083 34.04 553.083 34.5465C553.083 35.0529 553.183 35.5544 553.377 36.0222C553.571 36.4901 553.855 36.9152 554.214 37.2733C554.572 37.6314 554.997 37.9155 555.465 38.1093C555.933 38.3031 556.435 38.4028 556.942 38.4028V38.4028Z" fill="black"/>
<path d="M576.994 85.4908C585.827 84.4252 585.878 70.2682 576.994 71.5368C530.392 77.4736 483.992 81.2285 437.187 84.9326C436.285 84.9326 435.42 85.2908 434.782 85.9284C434.144 86.5659 433.786 87.4307 433.786 88.3323C433.786 89.234 434.144 90.0987 434.782 90.7363C435.42 91.3738 436.285 91.732 437.187 91.732C483.882 93.4606 530.639 91.3732 576.994 85.4908V85.4908Z" fill="black"/>
<path d="M243.213 144.199C271.743 141.357 300.425 140.343 328.905 137.146C337.027 136.232 337.281 123.395 328.905 124.156C300.273 126.642 271.845 131.311 243.213 134.304C236.868 134.609 236.868 144.706 243.213 144.199Z" fill="black"/>
<path d="M335.098 215.237C328.6 215.745 328.549 225.893 335.098 225.386C378.35 222.088 421.653 219.753 464.955 217.064C473.585 216.506 473.534 202.856 464.955 203.618C421.653 207.474 378.451 211.736 335.098 215.237Z" fill="black"/>
<path d="M619.382 184.336C676.752 192.812 734.706 196.714 792.694 196.007C802.086 196.007 802.035 181.139 792.694 181.494C735.295 183.698 677.812 181.067 620.855 173.629C614.814 172.868 613.341 183.423 619.382 184.336Z" fill="black"/>
<path d="M149.297 218.282C115.945 219.703 82.6936 222.748 49.3917 224.777C42.1831 225.234 42.1323 236.448 49.3917 236.042C82.6428 234.114 116.046 233.15 149.297 230.562C157.064 229.953 157.268 217.978 149.297 218.282Z" fill="black"/>
<path d="M353.171 282.471C299.715 288.762 246.564 297.693 193.261 305.101C186.407 306.015 186.306 316.924 193.261 315.96C247.072 308.755 301.238 303.528 354.897 295.663C362.207 294.344 360.582 281.608 353.171 282.471Z" fill="black"/>
<path d="M728.781 258.013C674.868 262.072 620.905 265.776 566.992 269.633C559.276 270.14 559.124 282.166 566.992 281.709C620.905 278.665 674.868 275.417 728.781 272.576C738.172 272.068 738.122 257.303 728.781 258.013Z" fill="black"/>
<path d="M437.085 371.269C413.835 369.798 390.381 369.798 367.08 369.087C359.669 369.087 359.77 380.149 367.08 380.555C390.381 381.823 413.784 383.853 437.085 384.411C445.614 384.563 445.462 371.776 437.085 371.269Z" fill="black"/>
<path d="M722.74 397.908C692.788 398.872 662.634 402.982 632.784 405.823C624.712 406.584 624.611 419.27 632.784 418.559C663.243 415.921 694.159 414.652 724.161 410.238C731.42 409.071 729.694 397.552 722.74 397.908Z" fill="black"/>
<path d="M1044.49 340.164C1005.6 337.475 965.346 342.955 926.968 348.892C920.318 349.907 921.891 361.577 928.592 360.715C967.275 355.64 1005.65 355.64 1044.49 353.205C1046.12 353.061 1047.64 352.312 1048.74 351.105C1049.85 349.898 1050.46 348.321 1050.46 346.685C1050.46 345.048 1049.85 343.471 1048.74 342.264C1047.64 341.057 1046.12 340.308 1044.49 340.164V340.164Z" fill="black"/>
<path d="M918.592 225.945C950.574 228.837 982.505 232.338 1014.49 235.281C1022.46 236.042 1022.51 223.408 1014.49 222.799C982.505 220.465 950.523 218.638 918.592 216.202C912.043 215.695 912.348 225.387 918.592 225.945Z" fill="black"/>
<path d="M887.625 87.2675C863.309 80.9142 837.954 79.5676 813.101 83.3097C805.487 84.426 808.736 95.8936 816.3 94.8788C837.614 91.9698 859.296 93.3675 880.061 98.9889L880.365 100.765C881.584 107.869 893.97 106.346 893.107 99.0396L892.498 93.458C892.408 92.0545 891.893 90.7115 891.023 89.6062C890.153 88.501 888.968 87.6855 887.625 87.2675V87.2675Z" fill="black"/>
<path d="M550.951 459.407C494.639 461.15 438.586 467.788 383.426 479.247C376.522 480.668 379.466 491.121 386.32 489.802C440.53 479.47 495.563 474.053 550.748 473.615C560.088 473.564 560.088 459.103 550.951 459.407Z" fill="black"/>
<path d="M244.787 444.844C224.372 437.945 202.656 435.776 181.28 438.501C173.512 439.465 173.462 451.744 181.28 450.78C201.567 448.281 222.155 450.185 241.639 456.362C249 458.493 252.097 447.279 244.787 444.844Z" fill="black"/>
<path d="M530.848 552.823C478.154 557.897 425.663 566.168 373.07 572.358C365.811 573.221 365.76 584.689 373.07 583.826C426.221 577.585 479.677 573.272 532.625 566.066C540.138 565.052 538.412 552.062 530.848 552.823Z" fill="black"/>
<path d="M732.741 516.035C776.043 514.716 819.346 514.006 862.598 512.179C871.431 511.773 871.482 498.073 862.598 498.377C819.295 499.849 776.297 502.487 732.741 504.466C725.38 504.821 725.278 516.238 732.741 516.035Z" fill="black"/>
<path d="M870.669 587.632C825.336 590.22 780.105 592.706 734.771 595.142C727.309 595.497 727.258 607.167 734.771 606.812C780.054 604.884 825.336 603.362 870.669 601.738C879.706 601.434 879.706 587.124 870.669 587.632Z" fill="black"/>
<path d="M1136.37 569.263C1116.37 571.343 1096.42 573.982 1076.42 576.367C1068.96 577.28 1068.65 588.951 1076.42 588.342C1096.42 586.769 1116.42 585.399 1136.37 583.267C1145.56 582.608 1145.56 568.299 1136.37 569.263Z" fill="black"/>
<path d="M748.579 653.647C700.72 646.547 651.903 649.537 605.269 662.425C603.819 662.926 602.613 663.961 601.898 665.318C601.183 666.676 601.011 668.255 601.418 669.734C601.825 671.213 602.781 672.482 604.09 673.283C605.399 674.084 606.965 674.356 608.468 674.045C653.004 662.483 699.417 660.032 744.924 666.84C753.504 668.058 757.362 654.966 748.579 653.647Z" fill="black"/>
<path d="M988.495 667.245C960.205 668.048 932.122 672.342 904.885 680.032C903.249 680.483 901.86 681.565 901.022 683.04C900.184 684.515 899.967 686.262 900.418 687.897C900.869 689.532 901.951 690.921 903.427 691.759C904.903 692.596 906.651 692.813 908.287 692.362C934.672 686.461 961.499 682.744 988.495 681.25C997.43 680.59 997.633 667.144 988.495 667.245Z" fill="black"/>
</svg>
