<svg width="504" height="152" viewBox="0 0 504 152" fill="none" xmlns="http://www.w3.org/2000/svg">
<path d="M96.8605 109C63.8764 70.168 103.212 15.0486 148.205 22.564C148.205 22.564 142.793 32.0743 149.399 38.5845C156.006 45.0947 165.397 38.8189 165.397 38.8189C165.397 38.8189 164.984 44.1316 167.481 47.5609C169.979 50.9902 175.291 51.4028 175.291 51.4028C175.291 51.4028 170.912 57.0465 173.905 63.0023C176.899 68.9581 184.856 68.5794 184.856 68.5794C187.913 118.04 129.845 147.832 96.8605 109Z" stroke="black" stroke-width="3"/>
<path d="M118.46 102.024L116.95 104.447L124.441 109.115L125.951 106.692L118.46 102.024Z" fill="black"/>
<path d="M132.953 57C123.025 57 114 64.9215 114 75.439C114 85.9565 121.991 93 132.953 93C143.915 93 152 88.3043 152 75.439C152 62.5737 142.881 57 132.953 57Z" stroke="black" stroke-width="2"/>
<path d="M130.357 42.6711L131.808 45.1296L139.409 40.6434L137.958 38.1848L130.357 42.6711Z" fill="black"/>
<path d="M102.857 82.1633L99.5126 90.3309L102.154 91.4128L105.499 83.2452L102.857 82.1633Z" fill="black" fill-opacity="0.74"/>
<path d="M164.361 69.9292L164.985 72.7151L173.597 70.7859L172.973 68L164.361 69.9292Z" fill="black"/>
<path d="M103.193 53.7494L103.521 56.5854L112.289 55.5728L111.961 52.7368L103.193 53.7494Z" fill="black" fill-opacity="0.36"/>
<path d="M165.156 89.2939L164.621 92.0983L173.291 93.7533L173.826 90.9489L165.156 89.2939Z" fill="black" fill-opacity="0.74"/>
<path d="M146.661 104.013L143.316 112.181L145.958 113.263L149.303 105.095L146.661 104.013Z" fill="black" fill-opacity="0.36"/>
<path d="M159.338 49.1309L155.993 57.2985L158.635 58.3804L161.98 50.2128L159.338 49.1309Z" fill="black" fill-opacity="0.74"/>
<path d="M267.366 120H245.213L212.459 62.4902V120H190.179V27.5781H212.459L245.149 85.0879V27.5781H267.366V120ZM347.448 27.5781V88.0713C347.448 94.9268 345.988 100.872 343.068 105.908C340.148 110.902 335.959 114.71 330.5 117.334C325.041 119.958 318.588 121.27 311.14 121.27C299.883 121.27 291.018 118.35 284.543 112.51C278.068 106.67 274.768 98.6719 274.641 88.5156V27.5781H297.048V88.96C297.302 99.0739 301.999 104.131 311.14 104.131C315.752 104.131 319.243 102.861 321.613 100.322C323.983 97.7832 325.168 93.6572 325.168 87.9443V27.5781H347.448ZM427.467 44.7803H399.728V120H377.447V44.7803H350.216V27.5781H427.467V44.7803ZM477.08 95.4346C477.08 92.1761 475.916 89.637 473.589 87.8174C471.304 85.9977 467.262 84.1146 461.465 82.168C455.667 80.2214 450.928 78.3382 447.246 76.5186C435.27 70.6364 429.282 62.5537 429.282 52.2705C429.282 47.1501 430.763 42.6432 433.726 38.75C436.73 34.8145 440.962 31.7676 446.421 29.6094C451.88 27.4089 458.016 26.3086 464.829 26.3086C471.473 26.3086 477.419 27.4935 482.666 29.8633C487.956 32.2331 492.061 35.6185 494.98 40.0195C497.9 44.3783 499.36 49.3717 499.36 55H477.144C477.144 51.2337 475.98 48.3138 473.652 46.2402C471.367 44.1667 468.257 43.1299 464.321 43.1299C460.343 43.1299 457.191 44.0186 454.863 45.7959C452.578 47.5309 451.436 49.7526 451.436 52.4609C451.436 54.8307 452.705 56.9889 455.244 58.9355C457.783 60.8398 462.248 62.8288 468.638 64.9023C475.028 66.9336 480.275 69.1341 484.38 71.5039C494.367 77.2591 499.36 85.1937 499.36 95.3076C499.36 103.39 496.313 109.738 490.22 114.351C484.126 118.963 475.768 121.27 465.146 121.27C457.656 121.27 450.864 119.937 444.771 117.271C438.719 114.562 434.149 110.881 431.06 106.226C428.013 101.528 426.489 96.1328 426.489 90.0391H448.833C448.833 94.9902 450.103 98.6507 452.642 101.021C455.223 103.348 459.391 104.512 465.146 104.512C468.828 104.512 471.727 103.729 473.843 102.163C476.001 100.555 477.08 98.3122 477.08 95.4346Z" fill="black"/>
<path d="M7.46094 120V27.5781H37.2314C45.3988 27.5781 52.7409 29.4401 59.2578 33.1641C65.7747 36.8457 70.8529 42.0719 74.4922 48.8428C78.1738 55.5713 80.0358 63.125 80.0781 71.5039V75.7568C80.0781 84.2204 78.2796 91.8164 74.6826 98.5449C71.1279 105.231 66.0921 110.479 59.5752 114.287C53.1006 118.053 45.8643 119.958 37.8662 120H7.46094ZM29.7412 44.7803V102.861H37.4854C43.8753 102.861 48.7842 100.597 52.2119 96.0693C55.6396 91.499 57.3535 84.7282 57.3535 75.7568V71.7578C57.3535 62.8288 55.6396 56.1003 52.2119 51.5723C48.7842 47.0443 43.7907 44.7803 37.2314 44.7803H29.7412Z" fill="black"/>
</svg>
