<svg width="193" height="316" viewBox="0 0 193 316" fill="none" xmlns="http://www.w3.org/2000/svg">
<path d="M127.939 218.592C141.08 222.595 150.378 230.66 153.124 245.024C156.091 260.576 150.577 275.788 145.344 289.993C144.068 288.352 142.891 286.652 141.853 285.497C137.937 281.128 133.766 277.105 129.496 273.093C127.427 271.14 123.266 272.991 124.969 276.037C128.524 282.454 132.404 288.684 136.591 294.7C139.812 299.263 142.934 305.069 148.702 306.405C154.469 307.741 159.476 304.141 164.167 301.718L186.024 290.413C193.632 286.47 187.455 273.713 180.224 278.018L166.066 286.439L159.88 290.112C167.563 267.36 173.224 240.312 155.761 220.06C141.238 203.198 119.115 205.66 100.749 197.037C74.8464 184.902 90.6794 153.117 97.0816 134.174C100.902 122.951 104.062 110.267 101.274 98.2336C98.4056 85.8793 90.0449 76.7055 79.2651 70.759C66.2844 63.5914 51.309 61.5955 38.5016 54.1313C27.6554 47.8207 16.8508 33.3253 25.0091 20.8515C27.0169 17.733 22.6485 14.8684 20.3446 17.5268C13.854 24.9699 13.7405 35.2237 17.3597 44.3413C21.7707 55.4471 31.6185 62.4644 41.9364 67.2263C54.064 72.8176 67.7632 75.4945 78.5946 83.8235C89.9721 92.6033 91.7832 105.488 88.547 118.676C82.8535 141.801 65.994 165.243 76.5037 190.173C85.6172 211.649 109.068 212.84 127.939 218.592Z" fill="black"/>
</svg>
