<svg width="143" height="173" viewBox="0 0 143 173" fill="none" xmlns="http://www.w3.org/2000/svg">
<path d="M134.464 54.2008L41.5926 99.9383C74.045 69.8659 106.65 39.9269 138.091 8.88262C141.336 5.66194 138.091 -1.21774 133.318 0.687987C87.8706 19.1226 43.8453 40.875 1.59985 65.7686C0.898359 66.2385 0.402579 66.9576 0.213397 67.7795C0.0242154 68.6015 0.155848 69.4645 0.581508 70.1929C1.00717 70.9214 1.69487 71.4606 2.50467 71.7008C3.31446 71.941 4.1855 71.8641 4.94053 71.4858C39.2355 51.4987 74.9673 34.0771 111.842 19.3641C76.8703 51.247 42.7953 84.2923 8.22395 116.556C3.64244 120.844 9.44568 127.362 14.619 124.846C40.6572 112.141 66.6764 99.3666 92.6765 86.522C73.5025 102.466 55.1468 119.366 37.6792 137.157C33.3268 141.617 38.8246 148.382 44.2079 145.6C61.2231 136.795 78.5501 128.677 96.189 121.244L53.6764 158.806C49.6294 162.389 53.9054 170.241 59.1551 168.163C72.1997 163.081 85.257 158 98.327 152.918C96.418 156.291 94.5091 159.645 92.6001 163.018C88.7822 169.936 99.4724 176.167 103.214 169.212L116.405 144.704C118.581 140.645 114.859 134.032 109.762 136.09L84.9452 146L127.133 108.495C131.104 104.969 126.942 97.4228 121.807 99.3475C103.99 106.043 86.4978 113.367 69.3298 121.321C91.6234 100.544 115.215 81.2002 139.961 63.4055C141.184 62.6777 142.067 61.4948 142.416 60.117C142.765 58.7393 142.552 57.2795 141.823 56.0589C141.094 54.8383 139.909 53.9568 138.529 53.6084C137.149 53.2599 135.686 53.473 134.464 54.2008Z" fill="black"/>
</svg>
